<svg width="30" height="30" viewBox="0 0 30 30" fill="none" xmlns="http://www.w3.org/2000/svg">
<g id="eye-slash-light" clip-path="url(#clip0_3749_6300)">
<g id="Vector">
<path fill-rule="evenodd" clipRule="evenodd" d="M29.6336 0.366117C30.1217 0.854272 30.1217 1.64573 29.6336 2.13388L23.736 8.0315C23.7254 8.04249 23.7146 8.05325 23.7037 8.06378L8.03535 23.7321C8.02477 23.7431 8.01402 23.7538 8.00311 23.7644L2.13358 29.6339C1.64542 30.122 0.853967 30.122 0.365811 29.6339C-0.122344 29.1457 -0.122344 28.3543 0.365811 27.8661L5.29262 22.9393C3.6452 21.4257 2.4269 19.7318 1.59119 18.3498C1.08425 17.5115 0.71107 16.7762 0.462959 16.2464C0.338763 15.9812 0.245503 15.7666 0.182146 15.6153C0.150457 15.5396 0.126216 15.4797 0.109295 15.4371L0.089378 15.3864L0.0834998 15.3711L0.0815751 15.366L0.0808657 15.3642C0.0808657 15.3642 0.0803246 15.3627 1.2498 14.9213L0.0924423 14.4491L0.0929465 14.4478L0.0942555 14.4447L0.0980772 14.4354L0.110547 14.4056C0.121009 14.3807 0.135779 14.3461 0.154886 14.3024C0.193093 14.215 0.248693 14.0909 0.321928 13.9355C0.468304 13.6247 0.685679 13.1874 0.976067 12.6656C1.55531 11.6248 2.43318 10.233 3.62848 8.83563C6.00784 6.05409 9.76146 3.125 14.9998 3.125C18.0654 3.125 20.6313 4.13191 22.7059 5.52602L27.8658 0.366117C28.354 -0.122039 29.1454 -0.122039 29.6336 0.366117ZM12.0897 16.1422L16.1419 12.09C15.7882 11.9511 15.4031 11.875 14.9997 11.875C13.2738 11.875 11.8747 13.2741 11.8747 15C11.8747 15.4034 11.9508 15.7886 12.0897 16.1422ZM17.9942 10.2377C17.1272 9.69165 16.0998 9.375 14.9997 9.375C11.8931 9.375 9.37469 11.8934 9.37469 15C9.37469 16.1001 9.69135 17.1275 10.2374 17.9945L7.06223 21.1697C5.60452 19.8491 4.50187 18.3319 3.73048 17.0562C3.27652 16.3055 2.94418 15.6499 2.727 15.1862C2.68469 15.0958 2.64681 15.0129 2.61331 14.9381C2.73847 14.6755 2.92053 14.3127 3.16058 13.8813C3.68179 12.9447 4.4682 11.6999 5.52825 10.4607C7.65961 7.96908 10.781 5.625 14.9998 5.625C17.2866 5.625 19.2434 6.31061 20.8979 7.334L17.9942 10.2377Z" fill="#B7B7B7"/>
<path d="M0.0924423 14.4491L-0.0927734 14.9041L0.0803246 15.3627L1.2498 14.9213C0.0920383 14.4501 0.0924423 14.4491 0.0924423 14.4491Z" fill="#B7B7B7"/>
<path d="M25.7585 9.99597C26.3181 9.59162 27.0995 9.71744 27.5038 10.277C28.3091 11.3914 28.9045 12.4224 29.3 13.1775C29.4981 13.5556 29.6469 13.8664 29.7477 14.086C29.7981 14.1958 29.8365 14.2831 29.8631 14.3447C29.8764 14.3755 29.8867 14.3999 29.8941 14.4176L29.903 14.439L29.9058 14.4459L29.9068 14.4483L29.9074 14.4497L28.7498 14.9213L29.9189 15.3638L29.9184 15.365L29.9171 15.3683L29.9135 15.3778L29.9017 15.4083C29.8917 15.4336 29.8777 15.4689 29.8596 15.5134C29.8233 15.6025 29.7704 15.7287 29.7005 15.8868C29.5607 16.2028 29.3524 16.6475 29.0719 17.178C28.5126 18.2361 27.6583 19.6512 26.4775 21.0721C24.1229 23.9054 20.3661 26.875 14.9998 26.875C13.9088 26.875 12.8786 26.7516 11.9092 26.5285C11.2364 26.3738 10.8165 25.7029 10.9713 25.0301C11.1261 24.3573 11.7969 23.9374 12.4697 24.0922C13.2569 24.2733 14.0991 24.375 14.9998 24.375C19.3436 24.375 22.4618 21.9928 24.5547 19.4743C25.5977 18.2193 26.3602 16.9584 26.8618 16.0096C27.0931 15.5719 27.2672 15.204 27.3863 14.9381C27.3083 14.7744 27.2081 14.5716 27.0854 14.3374C26.7329 13.6645 26.1988 12.7394 25.4775 11.7413C25.0732 11.1817 25.199 10.4003 25.7585 9.99597Z" fill="#B7B7B7"/>
<path d="M29.9189 15.3638C29.9189 15.3638 29.9193 15.3627 28.7498 14.9213C29.9076 14.4501 29.9074 14.4497 29.9074 14.4497L30.0924 14.9041L29.9189 15.3638Z" fill="#B7B7B7"/>
</g>
</g>
<defs>
<clipPath id="clip0_3749_6300">
<rect width="30" height="30" fill="white"/>
</clipPath>
</defs>
</svg>
